<?xml version="1.0" encoding="utf-8"?>
<!-- Generator: Adobe Illustrator 16.0.0, SVG Export Plug-In . SVG Version: 6.00 Build 0)  -->
<!DOCTYPE svg PUBLIC "-//W3C//DTD SVG 1.1//EN" "http://www.w3.org/Graphics/SVG/1.1/DTD/svg11.dtd" [
	<!ENTITY ns_flows "http://ns.adobe.com/Flows/1.0/">
	<!ENTITY ns_extend "http://ns.adobe.com/Extensibility/1.0/">
	<!ENTITY ns_ai "http://ns.adobe.com/AdobeIllustrator/10.0/">
	<!ENTITY ns_graphs "http://ns.adobe.com/Graphs/1.0/">
	<!ENTITY ns_vars "http://ns.adobe.com/Variables/1.0/">
	<!ENTITY ns_imrep "http://ns.adobe.com/ImageReplacement/1.0/">
	<!ENTITY ns_sfw "http://ns.adobe.com/SaveForWeb/1.0/">
	<!ENTITY ns_custom "http://ns.adobe.com/GenericCustomNamespace/1.0/">
	<!ENTITY ns_adobe_xpath "http://ns.adobe.com/XPath/1.0/">
]>
<svg version="1.1" id="圖層_1" xmlns:x="&ns_extend;" xmlns:i="&ns_ai;" xmlns:graph="&ns_graphs;"
	 xmlns="http://www.w3.org/2000/svg" xmlns:xlink="http://www.w3.org/1999/xlink" xmlns:a="http://ns.adobe.com/AdobeSVGViewerExtensions/3.0/"
	 x="0px" y="0px" width="15px" height="15px" viewBox="0 0 15 15" enable-background="new 0 0 15 15" xml:space="preserve">
<metadata>
	<sfw  xmlns="&ns_sfw;">
		<slices></slices>
		<sliceSourceBounds  width="13" height="13" bottomLeftOrigin="true" y="-14" x="1"></sliceSourceBounds>
	</sfw>
</metadata>
<path fill="none" stroke="#000000" stroke-miterlimit="10" d="M1.5,3c0-0.8,0.7-1.5,1.5-1.5h2c0.8,0,1.5,0.7,1.5,1.5v2
	c0,0.8-0.7,1.5-1.5,1.5H3C2.2,6.5,1.5,5.8,1.5,5V3z"/>
<path fill="none" stroke="#000000" stroke-miterlimit="10" d="M8.5,3c0-0.8,0.7-1.5,1.5-1.5h2c0.8,0,1.5,0.7,1.5,1.5v2
	c0,0.8-0.7,1.5-1.5,1.5h-2C9.2,6.5,8.5,5.8,8.5,5V3z"/>
<path fill="none" stroke="#000000" stroke-miterlimit="10" d="M1.5,10c0-0.8,0.7-1.5,1.5-1.5h2c0.8,0,1.5,0.7,1.5,1.5v2
	c0,0.8-0.7,1.5-1.5,1.5H3c-0.8,0-1.5-0.7-1.5-1.5V10z"/>
<path fill="none" stroke="#000000" stroke-miterlimit="10" d="M8.5,10c0-0.8,0.7-1.5,1.5-1.5h2c0.8,0,1.5,0.7,1.5,1.5v2
	c0,0.8-0.7,1.5-1.5,1.5h-2c-0.8,0-1.5-0.7-1.5-1.5V10z"/>
</svg>
